# xmcd
#
# Track frame offsets:
#	150
#	12027
#	24547
#
# Disc length: 646 seconds
#
# Revision: 0
# Processed by: cddbd v1.4PL0 Copyright (c) Steve Scherf et al.
# Submitted via: dBpowerAMP V4.0
#
DISCID=15028403
DTITLE=Johnny Cash - Ring Of Fire
DYEAR=1993
DGENRE=Country
TTITLE0=Ring of Fire
TTITLE1=Folsom Prison Blues
TTITLE2=Highway Patrol Man
EXTD=This is a single
EXTT0=
EXTT1=
EXTT2=
PLAYORDER=
